<svg width="107" height="88" viewBox="0 0 107 88" fill="none" xmlns="http://www.w3.org/2000/svg">
<rect x="1" y="1" width="67.0411" height="17.7727" stroke="#909090" stroke-width="2"/>
<rect x="8.39038" y="6.43176" width="6.89041" height="6.90909" fill="#909090" stroke="#909090"/>
<rect x="0.5" y="-0.5" width="2.94521" height="2.95455" transform="matrix(1 0 0 -1 37.4794 12.8409)" fill="#909090" stroke="#909090"/>
<rect x="0.5" y="-0.5" width="2.94521" height="2.95455" transform="matrix(1 0 0 -1 45.3698 12.8409)" fill="#909090" stroke="#909090"/>
<rect x="0.5" y="-0.5" width="2.94521" height="2.95455" transform="matrix(1 0 0 -1 53.2605 12.8409)" fill="#909090" stroke="#909090"/>
<rect x="0.5" y="-0.5" width="2.94521" height="2.95455" transform="matrix(1 0 0 -1 61.1509 12.8409)" fill="#909090" stroke="#909090"/>
<path d="M51.2871 63.1182L49.2871 62.168V35.6133H17.7803V65.2266H48.1123L49.6328 67.2266H15.7803V33.6133H51.2871V63.1182Z" fill="#909090"/>
<path d="M69.041 63.8535L67.041 64.6865V21.7725H2V77.0908H57.1299L58.6504 79.0908H0V19.7725H69.041V63.8535Z" fill="#909090"/>
<path d="M49.3152 63.2727L51.2878 65.7703M105.534 63.2727L100.356 70.1932M51.2878 65.7703L68.0549 87H87.781L100.356 70.1932M51.2878 65.7703L63.1234 71.1818L72.9864 67.2273L83.8358 71.1818L90.7399 67.2273L100.356 70.1932" stroke="#909090" stroke-width="1.5"/>
<path d="M49.3152 63.2727L51.2878 65.7703M105.534 63.2727L100.356 70.1932M51.2878 65.7703L68.0549 87H87.781L100.356 70.1932M51.2878 65.7703L63.1234 71.1818L72.9864 67.2273L83.8358 71.1818L90.7399 67.2273L100.356 70.1932" stroke="#909090" stroke-width="1.5"/>
<path d="M49.3152 63.2727L51.2878 65.7703M105.534 63.2727L100.356 70.1932M51.2878 65.7703L68.0549 87H87.781L100.356 70.1932M51.2878 65.7703L63.1234 71.1818L72.9864 67.2273L83.8358 71.1818L90.7399 67.2273L100.356 70.1932" stroke="#909090" stroke-width="1.5"/>
</svg>
