<svg width="106" height="88" viewBox="0 0 106 88" fill="none" xmlns="http://www.w3.org/2000/svg">
<rect x="1" y="1" width="66.6915" height="17.7727" stroke="#909090" stroke-width="2"/>
<rect x="8.35034" y="6.43176" width="6.85046" height="6.90909" fill="#909090" stroke="#909090"/>
<rect x="0.5" y="-0.5" width="2.92523" height="2.95455" transform="matrix(1 0 0 -1 37.2896 12.8409)" fill="#909090" stroke="#909090"/>
<rect x="0.5" y="-0.5" width="2.92523" height="2.95455" transform="matrix(1 0 0 -1 45.1399 12.8409)" fill="#909090" stroke="#909090"/>
<rect x="0.5" y="-0.5" width="2.92523" height="2.95455" transform="matrix(1 0 0 -1 52.9907 12.8409)" fill="#909090" stroke="#909090"/>
<rect x="0.5" y="-0.5" width="2.92523" height="2.95455" transform="matrix(1 0 0 -1 60.8413 12.8409)" fill="#909090" stroke="#909090"/>
<path d="M68.6914 63.8535L66.6914 64.6904V21.7725H2V77.0908H56.8359L58.3486 79.0908H0V19.7725H68.6914V63.8535Z" fill="#909090"/>
<path d="M49.0654 63.2727L51.028 65.7703M105 63.2727L99.8481 70.1932M51.028 65.7703L67.7103 87H87.3364L99.8481 70.1932M51.028 65.7703L62.8037 71.1818L72.6168 67.2273L83.4112 71.1818L90.2803 67.2273L99.8481 70.1932" stroke="#909090" stroke-width="1.5"/>
<path d="M49.0654 63.2727L51.028 65.7703M105 63.2727L99.8481 70.1932M51.028 65.7703L67.7103 87H87.3364L99.8481 70.1932M51.028 65.7703L62.8037 71.1818L72.6168 67.2273L83.4112 71.1818L90.2803 67.2273L99.8481 70.1932" stroke="#909090" stroke-width="1.5"/>
<path d="M49.0654 63.2727L51.028 65.7703M105 63.2727L99.8481 70.1932M51.028 65.7703L67.7103 87H87.3364L99.8481 70.1932M51.028 65.7703L62.8037 71.1818L72.6168 67.2273L83.4112 71.1818L90.2803 67.2273L99.8481 70.1932" stroke="#909090" stroke-width="1.5"/>
<!-- <rect x="17" y="35" width="33.33" height="31.61" stroke="#909090" stroke-width="2"> -->
<!--   <animateTransform -->
<!--     attributeName="transform" -->
<!--     type="rotate" -->
<!--     from="0 33.665 50.805" -->
<!--     to="360 33.665 50.805" -->
<!--     dur="5s" -->
<!--     repeatCount="indefinite" -->
<!--   /> -->
<!-- </rect> -->

<!-- <rect -->
<!--   x="17" -->
<!--   y="35" -->
<!--   width="33.33" -->
<!--   height="31.61" -->
<!--   stroke="#909090" -->
<!--   stroke-width="2" -->
<!-- > -->
<!--   <animateTransform -->
<!--     attributeName="transform" -->
<!--     type="rotate" -->
<!--     values="-15 33.665 50.805; 15 33.665 50.805; -15 33.665 50.805" -->
<!--     keyTimes="0; 0.5; 1" -->
<!--     calcMode="spline" -->
<!--     keySplines="0.4 0 0.6 1; 0.4 0 0.6 1" -->
<!--     dur="3s" -->
<!--     repeatCount="indefinite" -->
<!--   /> -->
<!-- </rect> -->
  <!-- <rect -->
  <!--   x="17" -->
  <!--   y="35" -->
  <!--   width="33.33" -->
  <!--   height="31.61" -->
  <!--   stroke="#909090" -->
  <!--   stroke-width="2" -->
  <!-- > -->
  <!--   <animateTransform -->
  <!--     id="rock" -->
  <!--     attributeName="transform" -->
  <!--     type="rotate" -->
  <!--     values="-15 33.665 50.805; 15 33.665 50.805; -15 33.665 50.805; 15 33.665 50.805; -15 33.665 50.805; 15 33.665 50.805; -15 33.665 50.805" -->
  <!--     keyTimes="0; 0.14; 0.28; 0.42; 0.56; 0.70; 0.84" -->
  <!--     dur="3s" -->
  <!--     fill="freeze" -->
  <!--   /> -->
  <!---->
  <!--   <animateTransform -->
  <!--     attributeName="transform" -->
  <!--     type="rotate" -->
  <!--     from="0 33.665 50.805" -->
  <!--     to="360 33.665 50.805" -->
  <!--     dur="0.5s" -->
  <!--     begin="rock.end" -->
  <!--     fill="freeze" -->
  <!--   /> -->
  <!---->
  <!--     <animateTransform -->
  <!--   attributeName="transform" -->
  <!--   type="rotate" -->
  <!--   values="-15 33.665 50.805; 15 33.665 50.805; -15 33.665 50.805" -->
  <!--   keyTimes="0; 0.5; 1" -->
  <!--   calcMode="spline" -->
  <!--   keySplines="0.4 0 0.6 1; 0.4 0 0.6 1" -->
  <!--   dur="3s" -->
  <!--   repeatCount="indefinite" -->
  <!--           begin="rock.end + 0.5s" -->
  <!---->
  <!-- /> -->
  <!--    </rect> -->
  <!---->
  
  <rect
    x="17"
    y="35"
    width="33.33"
    height="31.61"
    stroke="#909090"
    stroke-width="2"
  >
    <!-- Phase 1: fast full rotation -->
    <animateTransform
      id="spin1"
      attributeName="transform"
      type="rotate"
      from="0 33.665 50.805"
      to="360 33.665 50.805"
      dur="0.5s"
      begin="0s"
      fill="freeze"
    />

    <!-- Phase 2: rocking 3 times -->
    <animateTransform
      id="rock"
      attributeName="transform"
      type="rotate"
      values="-15 33.665 50.805; 15 33.665 50.805; -15 33.665 50.805"
      keyTimes="0; 0.5; 1"
      calcMode="spline"
      keySplines="0.4 0 0.6 1; 0.4 0 0.6 1"
      dur="3s"
      begin="spin1.end"
      fill="freeze"
      repeatCount="3" 
    />

    <!-- Phase 3: fast full rotation again -->
    <animateTransform
      id="spin2"
      attributeName="transform"
      type="rotate"
      from="0 33.665 50.805"
      to="360 33.665 50.805"
      dur="0.5s"
      begin="rock.end"
      fill="freeze"
      repeatCount="indefinite"
    />
  </rect>


</svg>
